<svg xmlns="http://www.w3.org/2000/svg" version="1.1" xmlns:xlink="http://www.w3.org/1999/xlink" xmlns:svgjs="http://svgjs.dev/svgjs" width="2000" height="1500" viewBox="0 0 2000 1500"><rect width="2000" height="1500" fill="#ffffff"></rect><g transform="matrix(0.75,0,0,0.75,249.090909090909,580.9397296319062)"><svg viewBox="0 0 396 89" data-background-color="#111111" preserveAspectRatio="xMidYMid meet" height="449" width="2000" xmlns="http://www.w3.org/2000/svg" xmlns:xlink="http://www.w3.org/1999/xlink"><g id="tight-bounds" transform="matrix(1,0,0,1,0.2400000000000091,0.1811108025548549)"><svg viewBox="0 0 395.52 88.6377783948903" height="88.6377783948903" width="395.52"><g><svg viewBox="0 0 395.52 88.6377783948903" height="88.6377783948903" width="395.52"><g><svg viewBox="0 0 395.52 88.6377783948903" height="88.6377783948903" width="395.52"><g id="textblocktransform"><svg viewBox="0 0 395.52 88.6377783948903" height="88.6377783948903" width="395.52" id="textblock"><g><svg viewBox="0 0 395.52 88.6377783948903" height="88.6377783948903" width="395.52"><g transform="matrix(1,0,0,1,0,0)"><svg width="395.52" viewBox="4 -39.95 180.04 40.35" height="88.6377783948903" data-palette-color="#ffffff"><path d="M24.75-8.4L24.75-14.75Q24.75-15.9 23.9-16.98 23.05-18.05 20.9-18.2L20.9-18.2Q19.5-16.5 17.5-16.5L17.5-16.5Q15.8-16.5 14.6-17.7 13.4-18.9 13.4-20.65L13.4-20.65Q13.4-22.4 14.6-23.6 15.8-24.8 17.5-24.8L17.5-24.8Q18.4-24.8 19.28-24.3 20.15-23.8 20.85-23.1L20.85-23.1Q21.95-23.15 22.55-23.45 23.15-23.75 23.43-24.18 23.7-24.6 23.75-25.15 23.8-25.7 23.8-26.25L23.8-26.25 23.8-31.3Q23.8-32.55 23.03-33.6 22.25-34.65 20.4-34.65L20.4-34.65 9.95-34.65 9.9-1.65Q9.9-0.65 8.97-0.13 8.05 0.4 6.95 0.4L6.95 0.4Q4 0.4 4-2L4-2 4-36.7Q4-38.5 4.93-39.1 5.85-39.7 7.15-39.7L7.15-39.7 21.65-39.7Q22.95-39.7 24.43-39.2 25.9-38.7 27.2-37.85L27.2-37.85 27.15-37.85Q28.45-36.9 29.08-35.35 29.7-33.8 29.7-31.75L29.7-31.75 29.7-26.1Q29.7-24.1 28.85-22.83 28-21.55 27.05-20.8L27.05-20.8Q27.7-20.4 28.3-19.98 28.9-19.55 29.3-19.05L29.3-19.05Q29.95-18.35 30.33-17.4 30.7-16.45 30.7-15.15L30.7-15.15 30.7-8Q30.7-3.9 27.5-1.95L27.5-1.95Q25.9-0.95 24.48-0.45 23.05 0.05 21.65 0.05L21.65 0.05 14.25 0.05Q13.4 0.05 12.93-0.65 12.45-1.35 12.45-2.5L12.45-2.5Q12.45-5 14.55-5L14.55-5 21.4-5Q23.25-5 24-6.05 24.75-7.1 24.75-8.4L24.75-8.4ZM44.35-37.55L44.35-2.1Q44.35 0.3 41.35 0.3L41.35 0.3Q38.4 0.3 38.4-2.1L38.4-2.1 38.4-37.55Q38.4-39.95 41.35-39.95L41.35-39.95Q44.35-39.95 44.35-37.55L44.35-37.55ZM61.65-22.85L71.3-22.85Q72.59-22.85 74-22.3 75.4-21.75 76.7-20.85L76.7-20.85 76.65-20.85Q77.95-19.95 78.65-18.4 79.34-16.85 79.34-14.85L79.34-14.85 79.34-8Q79.34-3.95 76.65-1.95L76.65-1.95Q75.34-1 73.97-0.48 72.59 0.05 71.3 0.05L71.3 0.05 60.4 0.05Q59.1 0.05 57.72-0.48 56.35-1 55.05-1.95L55.05-1.95Q52.35-3.95 52.35-8L52.35-8 52.35-11.3Q52.35-13.65 55.3-13.65L55.3-13.65Q58.3-13.65 58.3-11.3L58.3-11.3 58.3-8.4Q58.3-7.1 59.05-6.05 59.8-5 61.65-5L61.65-5 70.05-5Q71.9-5 72.65-6.05 73.4-7.1 73.4-8.4L73.4-8.4 73.4-14.45Q73.4-15.7 72.65-16.78 71.9-17.85 70.05-17.85L70.05-17.85 60.4-17.85Q57.8-17.85 55.05-19.75L55.05-19.75Q52.35-21.85 52.35-25.8L52.35-25.8 52.35-31.75Q52.35-33.75 53.05-35.27 53.75-36.8 55.05-37.75L55.05-37.75 55-37.75Q56.3-38.6 57.7-39.15 59.1-39.7 60.4-39.7L60.4-39.7 71.3-39.7Q72.59-39.7 74-39.15 75.4-38.6 76.7-37.75L76.7-37.75 76.65-37.75Q77.95-36.8 78.65-35.27 79.34-33.75 79.34-31.75L79.34-31.75 79.34-28.8Q79.34-26.45 76.34-26.45L76.34-26.45Q73.4-26.45 73.4-28.8L73.4-28.8 73.4-31.3Q73.4-32.55 72.65-33.6 71.9-34.65 70.05-34.65L70.05-34.65 61.65-34.65Q59.8-34.65 59.05-33.6 58.3-32.55 58.3-31.3L58.3-31.3 58.3-26.2Q58.3-24.9 59.05-23.88 59.8-22.85 61.65-22.85L61.65-22.85ZM108.34-2.1L108.34-37.55Q108.34-39.95 111.29-39.95L111.29-39.95Q114.29-39.95 114.29-37.55L114.29-37.55 114.29-2.1Q114.29 0.3 111.29 0.3L111.29 0.3Q108.34 0.3 108.34-2.1L108.34-2.1ZM93.14-37.55L93.14-2.1Q93.14 0.3 90.14 0.3L90.14 0.3Q87.19 0.3 87.19-2.1L87.19-2.1 87.19-37.55Q87.19-39.95 90.14-39.95L90.14-39.95Q93.14-39.95 93.14-37.55L93.14-37.55ZM104.84-20.65L104.84-20.65Q104.84-18.9 103.64-17.7 102.44-16.5 100.69-16.5L100.69-16.5Q98.99-16.5 97.79-17.7 96.59-18.9 96.59-20.65L96.59-20.65Q96.59-22.4 97.79-23.6 98.99-24.8 100.69-24.8L100.69-24.8Q102.44-24.8 103.64-23.6 104.84-22.4 104.84-20.65ZM143.74-10.5L143.74-37.55Q143.74-39.95 146.69-39.95L146.69-39.95Q149.64-39.95 149.64-37.55L149.64-37.55 149.64-3.05Q149.64-1.3 147.79-0.5L147.79-0.5 147.84-0.5Q147.04-0.15 146.14 0.05 145.24 0.25 144.39 0.25L144.39 0.25Q143.74 0.25 143.04 0.13 142.34 0 141.72-0.28 141.09-0.55 140.56-1.03 140.04-1.5 139.74-2.2L139.74-2.2 128.89-29.25 127.54-29.1 127.54-2.1Q127.54 0.3 124.54 0.3L124.54 0.3Q121.59 0.3 121.59-2.1L121.59-2.1 121.59-36.55Q121.59-38.6 123.39-39.3L123.39-39.3Q125.04-39.95 126.89-39.95L126.89-39.95Q128.19-39.95 129.52-39.43 130.84-38.9 131.54-37.45L131.54-37.45 142.34-10.35 143.74-10.5ZM184.04-37.55L184.04-8Q184.04-3.95 181.34-1.95L181.34-1.95Q180.04-1 178.66-0.48 177.29 0.05 175.99 0.05L175.99 0.05 165.09 0.05Q163.79 0.05 162.41-0.48 161.04-1 159.74-1.95L159.74-1.95Q158.44-2.95 157.74-4.42 157.04-5.9 157.04-8L157.04-8 157.04-37.55Q157.04-39.95 159.99-39.95L159.99-39.95Q162.99-39.95 162.99-37.55L162.99-37.55 162.99-8.4Q162.99-7.1 163.74-6.05 164.49-5 166.34-5L166.34-5 174.74-5Q176.59-5 177.34-6.05 178.09-7.1 178.09-8.4L178.09-8.4 178.09-37.55Q178.09-39.95 181.04-39.95L181.04-39.95Q184.04-39.95 184.04-37.55L184.04-37.55Z" opacity="1" transform="matrix(1,0,0,1,0,0)" fill="#000000" class="wordmark-text-0" data-fill-palette-color="primary" id="text-0"></path></svg></g></svg></g></svg></g></svg></g></svg></g><defs></defs></svg><rect width="395.52" height="88.6377783948903" fill="none" stroke="none" visibility="hidden"></rect></g></svg></g></svg>